<svg xmlns="http://www.w3.org/2000/svg" width="48" height="48" viewBox="0 0 48 48"><g transform="translate(0 -1004.362)"><circle cx="24" cy="1028.362" r="24" fill="#424242" fill-rule="evenodd"/><g transform="translate(314.5 -598.5)"><path fill="#406b95" d="m -275.5,1624.3622 0,12.5 c 0,0.5 -0.5,1 -1,1 l -27,0 c -0.5,0 -1,-0.5 -1,-1 l 0,-12.5"/><path fill="#0c5286" d="m -283.5,1628.8622 -6.5,0 -6.5,0 m -3,0 -2.49999,0 c -1.38501,0 -2.50001,-1.115 -2.50001,-2.5 l 0,-2 0,-1 c 0,-1.385 1.11501,-2.5 2.50002,-2.5 l 23.99996,0 c 1.38501,0 2.50002,1.115 2.50002,2.5 l 0,1 0,2 c 0,1.385 -1.115,2.5 -2.50001,2.5 l -2.49999,0"/><path fill="none" stroke="#0c5286" stroke-dashoffset="1.3" d="m -294.5,1620.3347 0,-1.1947 c 0,-1.2619 1.0035,-2.2778 2.25,-2.2778 l 4.5,0 c 1.2465,0 2.25,1.0159 2.25,2.2778 0,1.2618 0,1.1947 0,1.1947"/><path fill="#406b95" d="m -283.5,1627.8622 -6.5,0 -6.5,0 m -3,0 -2.49999,0 c -1.38501,0 -2.50001,-1.115 -2.50001,-2.5 l 0,-2 0,-1 c 0,-1.385 1.11501,-2.5 2.50002,-2.5 l 23.99996,0 c 1.38501,0 2.50002,1.115 2.50002,2.5 l 0,1 0,2 c 0,1.385 -1.115,2.5 -2.50001,2.5 l -2.49999,0"/><path fill="#8fb6d7" d="M-296.5 1629.7461l0 3.6161 0 4.5-3 0 0-4.5 0-3.6161 0-2.9532 0-6.9307 3 0 0 6.9307zM-280.5 1629.7622l0 3.6 0 4.5-3 0 0-4.5 0-3.6 0-3.0858 0-6.8142 3 0 0 6.8142z"/><rect width="4" height="3" x="-300" y="1626.862" fill="#d2dce9" rx=".5" ry=".5"/><rect width="4" height="3" x="-284" y="1626.862" fill="#d2dce9" rx=".5" ry=".5"/><path fill="none" stroke="#0c5286" d="m -298,1629.8622 0,-1.5"/><path fill="none" stroke="#0c5286" stroke-linejoin="round" d="m -282,1629.8622 0,-1.5"/></g></g></svg>