<svg width="200" height="200" viewBox="0 0 200 200" fill="none" xmlns="http://www.w3.org/2000/svg">
<path d="M74.8125 60.5703L75.7266 63.2422C73.8672 63.8203 72.5859 64.8594 71.8828 66.3594C71.1797 67.8438 70.8281 69.5469 70.8281 71.4688V76.3203C70.8281 77.8828 70.5078 79.3047 69.8672 80.5859C69.2422 81.8516 68.2422 82.8594 66.8672 83.6094C65.5078 84.3594 63.7188 84.7344 61.5 84.7344V81.875C63.2656 81.875 64.5312 81.375 65.2969 80.375C66.0781 79.375 66.4688 78.0234 66.4688 76.3203V71.4688C66.4688 69.8281 66.7188 68.2969 67.2188 66.875C67.7344 65.4375 68.5938 64.1797 69.7969 63.1016C71.0156 62.0078 72.6875 61.1641 74.8125 60.5703ZM75.7266 103.883L74.8125 106.578C72.6875 105.969 71.0156 105.125 69.7969 104.047C68.5938 102.969 67.7344 101.711 67.2188 100.273C66.7188 98.8516 66.4688 97.3203 66.4688 95.6797V90.8516C66.4688 89.7109 66.2969 88.7266 65.9531 87.8984C65.6094 87.0703 65.0703 86.4297 64.3359 85.9766C63.6172 85.5078 62.6719 85.2734 61.5 85.2734V82.4141C63.7188 82.4141 65.5078 82.7891 66.8672 83.5391C68.2422 84.2891 69.2422 85.3047 69.8672 86.5859C70.5078 87.8516 70.8281 89.2734 70.8281 90.8516V95.6797C70.8281 96.9609 70.9766 98.1484 71.2734 99.2422C71.5859 100.336 72.0938 101.281 72.7969 102.078C73.5156 102.891 74.4922 103.492 75.7266 103.883Z" fill="#7F7F7F"/>
<path d="M123.469 63.2422L124.383 60.5703C126.523 61.1641 128.195 62.0078 129.398 63.1016C130.617 64.1797 131.477 65.4375 131.977 66.875C132.477 68.2969 132.727 69.8281 132.727 71.4688V76.3203C132.727 77.4453 132.898 78.4297 133.242 79.2734C133.586 80.1016 134.117 80.7422 134.836 81.1953C135.57 81.6484 136.523 81.875 137.695 81.875V84.5234C135.492 84.5234 133.703 84.1719 132.328 83.4688C130.953 82.75 129.945 81.7734 129.305 80.5391C128.68 79.2891 128.367 77.8828 128.367 76.3203V71.4688C128.367 70.1875 128.219 69 127.922 67.9062C127.625 66.7969 127.117 65.8438 126.398 65.0469C125.695 64.2344 124.719 63.6328 123.469 63.2422ZM124.383 106.578L123.469 103.883C124.703 103.492 125.672 102.891 126.375 102.078C127.094 101.281 127.602 100.336 127.898 99.2422C128.211 98.1484 128.367 96.9609 128.367 95.6797V90.8516C128.367 89.2734 128.68 87.8672 129.305 86.6328C129.945 85.3984 130.953 84.4297 132.328 83.7266C133.703 83.0078 135.492 82.6484 137.695 82.6484V85.2734C135.945 85.2734 134.68 85.7812 133.898 86.7969C133.117 87.7969 132.727 89.1484 132.727 90.8516V95.6797C132.727 97.3203 132.477 98.8516 131.977 100.273C131.477 101.711 130.617 102.969 129.398 104.047C128.195 105.125 126.523 105.969 124.383 106.578Z" fill="#7F7F7F"/>
<path d="M89.5469 84.6172H80.4297V80.9375H89.5469C91.3125 80.9375 92.7422 80.6562 93.8359 80.0938C94.9297 79.5312 95.7266 78.75 96.2266 77.75C96.7422 76.75 97 75.6094 97 74.3281C97 73.1562 96.7422 72.0547 96.2266 71.0234C95.7266 69.9922 94.9297 69.1641 93.8359 68.5391C92.7422 67.8984 91.3125 67.5781 89.5469 67.5781H81.4844V98H76.9609V63.875H89.5469C92.125 63.875 94.3047 64.3203 96.0859 65.2109C97.8672 66.1016 99.2188 67.3359 100.141 68.9141C101.062 70.4766 101.523 72.2656 101.523 74.2812C101.523 76.4688 101.062 78.3359 100.141 79.8828C99.2188 81.4297 97.8672 82.6094 96.0859 83.4219C94.3047 84.2188 92.125 84.6172 89.5469 84.6172Z" fill="#00B6CA"/>
<path d="M123.26 82.9382L122.406 95.4012C121.943 95.996 121.224 96.6515 120.251 97.368C119.279 98.0688 117.963 98.6521 116.302 99.1179C114.658 99.5691 112.566 99.7077 110.025 99.5337C107.951 99.3918 106.066 98.9025 104.37 98.0658C102.689 97.2147 101.258 96.0517 100.074 94.5768C98.9078 93.0873 98.0421 91.3209 97.4773 89.2776C96.9291 87.2197 96.742 84.9203 96.916 82.3793L97.0969 79.7371C97.2709 77.1962 97.7224 74.9483 98.4514 72.9936C99.196 71.0399 100.2 69.4094 101.465 68.1021C102.73 66.7791 104.236 65.8173 105.985 65.2166C107.734 64.6003 109.708 64.3674 111.906 64.5179C114.509 64.6962 116.653 65.2972 118.337 66.3209C120.037 67.3301 121.325 68.6555 122.199 70.2972C123.089 71.9399 123.605 73.7764 123.748 75.8065L119.235 75.4975C119.117 74.2521 118.788 73.102 118.25 72.0471C117.727 70.9933 116.933 70.1245 115.868 69.4407C114.804 68.7414 113.399 68.332 111.653 68.2124C110.078 68.1046 108.694 68.2996 107.501 68.7974C106.308 69.2951 105.301 70.0562 104.479 71.0806C103.657 72.1049 103.007 73.3682 102.528 74.8702C102.065 76.3733 101.768 78.0836 101.636 80.001L101.452 82.69C101.318 84.6541 101.424 86.4233 101.77 87.9975C102.132 89.5728 102.704 90.9354 103.487 92.0853C104.271 93.2196 105.236 94.108 106.382 94.7503C107.544 95.3937 108.85 95.765 110.299 95.8643C111.905 95.9742 113.216 95.9308 114.232 95.7342C115.248 95.5219 116.05 95.2479 116.637 94.9122C117.225 94.5609 117.679 94.2239 117.998 93.9013L118.52 86.2785L110.64 85.7389L110.89 82.0912L123.26 82.9382Z" fill="#00B6CA"/>
<path d="M61.6113 130.531C61.6113 129.934 61.5176 129.406 61.3301 128.949C61.1543 128.48 60.8379 128.059 60.3809 127.684C59.9355 127.309 59.3145 126.951 58.5176 126.611C57.7324 126.271 56.7363 125.926 55.5293 125.574C54.2637 125.199 53.1211 124.783 52.1016 124.326C51.082 123.857 50.209 123.324 49.4824 122.727C48.7559 122.129 48.1992 121.443 47.8125 120.67C47.4258 119.896 47.2324 119.012 47.2324 118.016C47.2324 117.02 47.4375 116.1 47.8477 115.256C48.2578 114.412 48.8438 113.68 49.6055 113.059C50.3789 112.426 51.2988 111.934 52.3652 111.582C53.4316 111.23 54.6211 111.055 55.9336 111.055C57.8555 111.055 59.4844 111.424 60.8203 112.162C62.168 112.889 63.1934 113.844 63.8965 115.027C64.5996 116.199 64.9512 117.453 64.9512 118.789H61.5762C61.5762 117.828 61.3711 116.979 60.9609 116.24C60.5508 115.49 59.9297 114.904 59.0977 114.482C58.2656 114.049 57.2109 113.832 55.9336 113.832C54.7266 113.832 53.7305 114.014 52.9453 114.377C52.1602 114.74 51.5742 115.232 51.1875 115.854C50.8125 116.475 50.625 117.184 50.625 117.98C50.625 118.52 50.7363 119.012 50.959 119.457C51.1934 119.891 51.5508 120.295 52.0312 120.67C52.5234 121.045 53.1445 121.391 53.8945 121.707C54.6562 122.023 55.5645 122.328 56.6191 122.621C58.0723 123.031 59.3262 123.488 60.3809 123.992C61.4355 124.496 62.3027 125.064 62.9824 125.697C63.6738 126.318 64.1836 127.027 64.5117 127.824C64.8516 128.609 65.0215 129.5 65.0215 130.496C65.0215 131.539 64.8105 132.482 64.3887 133.326C63.9668 134.17 63.3633 134.891 62.5781 135.488C61.793 136.086 60.8496 136.549 59.748 136.877C58.6582 137.193 57.4395 137.352 56.0918 137.352C54.9082 137.352 53.7422 137.188 52.5938 136.859C51.457 136.531 50.4199 136.039 49.4824 135.383C48.5566 134.727 47.8125 133.918 47.25 132.957C46.6992 131.984 46.4238 130.859 46.4238 129.582H49.7988C49.7988 130.461 49.9688 131.217 50.3086 131.85C50.6484 132.471 51.1113 132.986 51.6973 133.396C52.2949 133.807 52.9688 134.111 53.7188 134.311C54.4805 134.498 55.2715 134.592 56.0918 134.592C57.2754 134.592 58.2773 134.428 59.0977 134.1C59.918 133.771 60.5391 133.303 60.9609 132.693C61.3945 132.084 61.6113 131.363 61.6113 130.531ZM76.4648 134.68C77.2383 134.68 77.9531 134.521 78.6094 134.205C79.2656 133.889 79.8047 133.455 80.2266 132.904C80.6484 132.342 80.8887 131.703 80.9473 130.988H84.041C83.9824 132.113 83.6016 133.162 82.8984 134.135C82.207 135.096 81.2988 135.875 80.1738 136.473C79.0488 137.059 77.8125 137.352 76.4648 137.352C75.0352 137.352 73.7871 137.1 72.7207 136.596C71.666 136.092 70.7871 135.4 70.084 134.521C69.3926 133.643 68.8711 132.635 68.5195 131.498C68.1797 130.35 68.0098 129.137 68.0098 127.859V127.121C68.0098 125.844 68.1797 124.637 68.5195 123.5C68.8711 122.352 69.3926 121.338 70.084 120.459C70.7871 119.58 71.666 118.889 72.7207 118.385C73.7871 117.881 75.0352 117.629 76.4648 117.629C77.9531 117.629 79.2539 117.934 80.3672 118.543C81.4805 119.141 82.3535 119.961 82.9863 121.004C83.6309 122.035 83.9824 123.207 84.041 124.52H80.9473C80.8887 123.734 80.666 123.025 80.2793 122.393C79.9043 121.76 79.3887 121.256 78.7324 120.881C78.0879 120.494 77.332 120.301 76.4648 120.301C75.4688 120.301 74.6309 120.5 73.9512 120.898C73.2832 121.285 72.75 121.812 72.3516 122.48C71.9648 123.137 71.6836 123.869 71.5078 124.678C71.3438 125.475 71.2617 126.289 71.2617 127.121V127.859C71.2617 128.691 71.3438 129.512 71.5078 130.32C71.6719 131.129 71.9473 131.861 72.334 132.518C72.7324 133.174 73.2656 133.701 73.9336 134.1C74.6133 134.486 75.457 134.68 76.4648 134.68ZM90.9492 110V137H87.6973V110H90.9492ZM90.1758 126.77L88.8223 126.717C88.834 125.416 89.0273 124.215 89.4023 123.113C89.7773 122 90.3047 121.033 90.9844 120.213C91.6641 119.393 92.4727 118.76 93.4102 118.314C94.3594 117.857 95.4082 117.629 96.5566 117.629C97.4941 117.629 98.3379 117.758 99.0879 118.016C99.8379 118.262 100.477 118.66 101.004 119.211C101.543 119.762 101.953 120.477 102.234 121.355C102.516 122.223 102.656 123.283 102.656 124.537V137H99.3867V124.502C99.3867 123.506 99.2402 122.709 98.9473 122.111C98.6543 121.502 98.2266 121.062 97.6641 120.793C97.1016 120.512 96.4102 120.371 95.5898 120.371C94.7812 120.371 94.043 120.541 93.375 120.881C92.7188 121.221 92.1504 121.689 91.6699 122.287C91.2012 122.885 90.832 123.57 90.5625 124.344C90.3047 125.105 90.1758 125.914 90.1758 126.77ZM106.664 127.701V127.297C106.664 125.926 106.863 124.654 107.262 123.482C107.66 122.299 108.234 121.273 108.984 120.406C109.734 119.527 110.643 118.848 111.709 118.367C112.775 117.875 113.971 117.629 115.295 117.629C116.631 117.629 117.832 117.875 118.898 118.367C119.977 118.848 120.891 119.527 121.641 120.406C122.402 121.273 122.982 122.299 123.381 123.482C123.779 124.654 123.979 125.926 123.979 127.297V127.701C123.979 129.072 123.779 130.344 123.381 131.516C122.982 132.688 122.402 133.713 121.641 134.592C120.891 135.459 119.982 136.139 118.916 136.631C117.861 137.111 116.666 137.352 115.33 137.352C113.994 137.352 112.793 137.111 111.727 136.631C110.66 136.139 109.746 135.459 108.984 134.592C108.234 133.713 107.66 132.688 107.262 131.516C106.863 130.344 106.664 129.072 106.664 127.701ZM109.916 127.297V127.701C109.916 128.65 110.027 129.547 110.25 130.391C110.473 131.223 110.807 131.961 111.252 132.605C111.709 133.25 112.277 133.76 112.957 134.135C113.637 134.498 114.428 134.68 115.33 134.68C116.221 134.68 117 134.498 117.668 134.135C118.348 133.76 118.91 133.25 119.355 132.605C119.801 131.961 120.135 131.223 120.357 130.391C120.592 129.547 120.709 128.65 120.709 127.701V127.297C120.709 126.359 120.592 125.475 120.357 124.643C120.135 123.799 119.795 123.055 119.338 122.41C118.893 121.754 118.33 121.238 117.65 120.863C116.982 120.488 116.197 120.301 115.295 120.301C114.404 120.301 113.619 120.488 112.939 120.863C112.271 121.238 111.709 121.754 111.252 122.41C110.807 123.055 110.473 123.799 110.25 124.643C110.027 125.475 109.916 126.359 109.916 127.297ZM127.195 127.701V127.297C127.195 125.926 127.395 124.654 127.793 123.482C128.191 122.299 128.766 121.273 129.516 120.406C130.266 119.527 131.174 118.848 132.24 118.367C133.307 117.875 134.502 117.629 135.826 117.629C137.162 117.629 138.363 117.875 139.43 118.367C140.508 118.848 141.422 119.527 142.172 120.406C142.934 121.273 143.514 122.299 143.912 123.482C144.311 124.654 144.51 125.926 144.51 127.297V127.701C144.51 129.072 144.311 130.344 143.912 131.516C143.514 132.688 142.934 133.713 142.172 134.592C141.422 135.459 140.514 136.139 139.447 136.631C138.393 137.111 137.197 137.352 135.861 137.352C134.525 137.352 133.324 137.111 132.258 136.631C131.191 136.139 130.277 135.459 129.516 134.592C128.766 133.713 128.191 132.688 127.793 131.516C127.395 130.344 127.195 129.072 127.195 127.701ZM130.447 127.297V127.701C130.447 128.65 130.559 129.547 130.781 130.391C131.004 131.223 131.338 131.961 131.783 132.605C132.24 133.25 132.809 133.76 133.488 134.135C134.168 134.498 134.959 134.68 135.861 134.68C136.752 134.68 137.531 134.498 138.199 134.135C138.879 133.76 139.441 133.25 139.887 132.605C140.332 131.961 140.666 131.223 140.889 130.391C141.123 129.547 141.24 128.65 141.24 127.701V127.297C141.24 126.359 141.123 125.475 140.889 124.643C140.666 123.799 140.326 123.055 139.869 122.41C139.424 121.754 138.861 121.238 138.182 120.863C137.514 120.488 136.729 120.301 135.826 120.301C134.936 120.301 134.15 120.488 133.471 120.863C132.803 121.238 132.24 121.754 131.783 122.41C131.338 123.055 131.004 123.799 130.781 124.643C130.559 125.475 130.447 126.359 130.447 127.297ZM152.121 110V137H148.852V110H152.121Z" fill="#00B6CA"/>
</svg>
